<svg width="64" height="64" viewBox="0 0 64 64" fill="none" xmlns="http://www.w3.org/2000/svg">
  <path d="M32 13C21.523 13 13 21.3 13 31.503c0 3.57 1.045 7.047 3.028 10.045L13.4 51l9.75-2.557A19.39 19.39 0 0 0 32 50c10.477 0 19-8.3 19-18.497C51 21.3 42.477 13 32 13Z" stroke="white" stroke-width="4.5" stroke-linecap="round" stroke-linejoin="round"/>
  <path d="M25.78 24.438c-.694 0-1.354.315-1.778.981-.48.754-1.228 2.19-1.228 4.078 0 2.205 1.046 4.88 3.057 7.41 2.392 3.003 5.75 5.323 9.698 6.55 1.588.494 3.415.58 4.732-.13 1.06-.571 2.292-1.823 2.533-3.224l.204-1.186c.05-.292-.103-.58-.37-.72l-5.027-2.602a.794.794 0 0 0-.97.162l-2.087 2.204c-.145.153-.367.211-.572.148-1.402-.427-2.86-1.54-4.215-3.076-1.309-1.484-2.205-3.045-2.528-4.382-.05-.206.011-.421.167-.56l2.265-2.013a.758.758 0 0 0 .18-.93l-2.938-5.002a.812.812 0 0 0-.704-.398Z" fill="white"/>
</svg>
